<?xml version="1.0" encoding="UTF-8"?>
<svg style="isolation:isolate" version="1.1" viewBox="0 0 200 200" xmlns="http://www.w3.org/2000/svg">
<defs>
<clipPath>
<rect width="200" height="200"/>
</clipPath>
</defs>
<g>
<g transform="translate(-.66401 -1.4608)" style="isolation:isolate">
<path d="m98.4 64.8c23.843 0 43.2 19.357 43.2 43.2v12.8c0 23.843-19.357 43.2-43.2 43.2s-43.2-19.357-43.2-43.2v-12.8c0-23.843 19.357-43.2 43.2-43.2z" fill="#025e84"/>
<rect x="20" y="119.2" width="160" height="57.6" fill="#025e84"/>
<rect x="36" y="100" width="128" height="96" fill="#06a2e5"/>
<rect x="48.8" y="116" width="99.2" height="28.8" fill="#025e84"/>
<rect x="42.4" y="151.2" width="112" height="35.2" fill="#025e84"/>
<path d="m58.4 130.4c0-4.415 3.585-8 8-8s8 3.585 8 8-3.585 8-8 8-8-3.585-8-8z" fill="#ebebeb"/>
<path d="m122.4 130.4c0-4.415 3.585-8 8-8s8 3.585 8 8-3.585 8-8 8-8-3.585-8-8z" fill="#ebebeb"/>
</g>
</g>
<g>
<g transform="matrix(.20378 0 0 .17976 -21.041 -6.4499)" fill="#06a2e5" stroke-width=".73315">
<path d="m670.13 84.198c-26.498-15.943-53.6-23.132-81.065-23.062-27.465-0.070669-58.298 7.1187-84.796 23.062-123.46 74.286-168.31 257.6-162.13 500.27h102.49c-5.755-167.23 20.368-279.91 84.217-328.04 36.991-27.884 79.712-27.884 116.7 0 63.849 48.131 89.972 160.81 84.217 328.04h102.49c6.1791-242.67-38.666-425.99-162.13-500.27z"/>
<path d="m670.13 84.198c-26.498-15.943-53.6-23.132-81.065-23.062-27.465-0.070669-58.298 7.1187-84.796 23.062-123.46 74.286-168.31 257.6-162.13 500.27h102.49c-5.755-167.23 20.368-279.91 84.217-328.04 36.991-27.884 79.712-27.884 116.7 0 63.849 48.131 89.972 160.81 84.217 328.04h102.49c6.1791-242.67-38.666-425.99-162.13-500.27z"/>
</g>
<g transform="matrix(.20378 0 0 .17976 -21.041 -6.4499)" fill="#06a2e5" stroke-width=".73315">
<path d="m670.13 84.198c-26.498-15.943-53.6-23.132-81.065-23.062-27.465-0.070669-58.298 7.1187-84.796 23.062-123.46 74.286-168.31 257.6-162.13 500.27h102.49c-5.755-167.23 20.368-279.91 84.217-328.04 36.991-27.884 79.712-27.884 116.7 0 63.849 48.131 89.972 160.81 84.217 328.04h102.49c6.1791-242.67-38.666-425.99-162.13-500.27z"/>
<path d="m670.13 84.198c-26.498-15.943-53.6-23.132-81.065-23.062-27.465-0.070669-58.298 7.1187-84.796 23.062-123.46 74.286-168.31 257.6-162.13 500.27h102.49c-5.755-167.23 20.368-279.91 84.217-328.04 36.991-27.884 79.712-27.884 116.7 0 63.849 48.131 89.972 160.81 84.217 328.04h102.49c6.1791-242.67-38.666-425.99-162.13-500.27z"/>
</g>
<rect x="41.735" y="158.67" width="112" height="16.918" fill="#fff" stroke-width="1.0005"/>
<rect x="41.735" y="158.67" width="112" height="16.918" fill="#fff" stroke-width="1.0005"/>
</g>
<g fill="#999">
<rect x="55.844" y="158.66" width="9.6299" height="16.969"/>
<rect x="80.327" y="158.67" width="9.6299" height="16.969" style="isolation:isolate"/>
<rect x="105.04" y="158.6" width="9.6299" height="16.969" style="isolation:isolate"/>
<rect x="129.53" y="158.61" width="9.6299" height="16.969" style="isolation:isolate"/>
</g>
</svg>
